# xmcd
#
# Track frame offsets:
#	150
#	23917
#	40580
#	55445
#	84420
#	115137
#	133345
#	136975
#	164622
#	182642
#	206305
#
# Disc length: 3028 seconds
#
# Revision: 1
# Processed by: cddbd v1.5.2PL0 Copyright (c) Steve Scherf et al.
# Submitted via: audiograbber 1.83.01
#
DISCID=950bd20b
DTITLE=Foals - Total life forever
DYEAR=2010
DGENRE=Pop
TTITLE0=Blue blood
TTITLE1=Miami
TTITLE2=Total life forever
TTITLE3=Black gold
TTITLE4=Spanish Sahara
TTITLE5=This orient
TTITLE6=Fugue
TTITLE7=After glow
TTITLE8=Alabaster
TTITLE9=2 trees
TTITLE10=What remains
EXTD=
EXTT0=
EXTT1=
EXTT2=
EXTT3=
EXTT4=
EXTT5=
EXTT6=
EXTT7=
EXTT8=
EXTT9=
EXTT10=
PLAYORDER=
